<?xml version="1.0" encoding="UTF-8"?>
<svg version="1.1" xmlns="http://www.w3.org/2000/svg" width="225" height="225">
<path d="M0 0 C0.97453125 0.54398438 1.9490625 1.08796875 2.953125 1.6484375 C28.77588154 17.1269904 46.05034554 42.507465 53.4909668 71.39111328 C60.56793347 100.22002126 55.41919489 131.188795 40.265625 156.55078125 C22.64372976 184.04376486 -2.83381358 200.73130673 -34.1484375 208.8125 C-63.5160843 214.4813219 -93.91017656 207.82247565 -119 192 C-122.85926875 189.19638365 -126.43529861 186.16549982 -130 183 C-130.75539062 182.38769531 -131.51078125 181.77539062 -132.2890625 181.14453125 C-151.98720516 164.82221869 -163.79200015 139.83976032 -168 115 C-168.13148438 114.23816406 -168.26296875 113.47632813 -168.3984375 112.69140625 C-172.2488434 85.16620734 -165.01479456 55.80072686 -149.0625 33.125 C-144.99801098 27.81725552 -140.57995486 22.86515351 -136 18 C-135.19175781 17.09507813 -135.19175781 17.09507813 -134.3671875 16.171875 C-100.42057386 -20.33352862 -41.67371889 -23.34006392 0 0 Z M-131.57275391 33.32714844 C-149.51288289 54.35447717 -156.64644642 81.16701329 -154.76171875 108.44921875 C-151.86066196 133.67962172 -139.08762675 157.12545853 -119.9375 173.69140625 C-97.20607134 191.55613276 -70.1000855 198.83664795 -41.38525391 195.71582031 C-19.02835645 192.31833702 0.20677201 180.79322799 16 165 C16.66644531 164.33355469 17.33289063 163.66710937 18.01953125 162.98046875 C36.00964439 143.69084405 43.14215885 117.61398607 42.3828125 91.84765625 C41.06562272 66.43583453 29.41467607 42.42063148 11 25 C-31.02364865 -12.18955573 -94.02342301 -8.25474694 -131.57275391 33.32714844 Z " fill="#000000" transform="translate(169,15)"/>
<path d="M0 0 C2.75362283 2.75362283 3.44443724 6.00442159 4.625 9.625 C7.65479218 18.5237761 11.53855046 26.7389424 16 35 C16.57186035 36.05960938 16.57186035 36.05960938 17.15527344 37.140625 C18.32220138 39.28723189 19.50093812 41.42668862 20.6875 43.5625 C21.22177612 44.52651733 21.22177612 44.52651733 21.7668457 45.51000977 C23.53605378 48.63706767 25.35266132 51.43533039 27.63793945 54.20996094 C30.4573928 58.16355346 30.46387093 61.55012729 29.96875 66.26171875 C29.90385376 67.10385422 29.83895752 67.94598969 29.77209473 68.81364441 C29.62090028 70.7589358 29.45805059 72.70334206 29.28613281 74.64691162 C28.96666957 78.39058739 28.70089308 82.13681578 28.4453125 85.88525391 C27.8823026 94.08815132 27.28026136 102.28785224 26.67181396 110.48748779 C26.44088176 113.61249688 26.21350382 116.73776082 25.98607635 119.86302662 C25.7647624 122.89756623 25.54114876 125.93193306 25.31684875 128.96625328 C25.2108912 130.40340644 25.10564111 131.84061196 25.00114441 133.27787209 C24.85531896 135.278926 24.70604529 137.27972771 24.55664062 139.28051758 C24.47305298 140.4126619 24.38946533 141.54480621 24.30334473 142.71125793 C23.38488607 152.66881897 23.38488607 152.66881897 20.3125 155.3125 C8.28638953 161.43900911 -5.28130664 161.30896451 -18.1484375 158.046875 C-21.72049023 156.73549126 -25.09242576 155.48981972 -28 153 C-28.88440151 150.14300271 -29.22050315 148.25428293 -29.34545898 145.34838867 C-29.40500259 144.58185974 -29.4645462 143.81533081 -29.52589417 143.02557373 C-29.71464727 140.49082814 -29.85565091 137.9558125 -29.99609375 135.41796875 C-30.11784692 133.64338834 -30.24240878 131.86899862 -30.36964417 130.09480286 C-30.69698815 125.41518129 -30.98331114 120.73388156 -31.26202393 116.05114746 C-31.49380172 112.26869502 -31.75386752 108.48845585 -32.01577663 104.70798779 C-35.32369229 56.90654673 -35.32369229 56.90654673 -30.0625 50.0625 C-29.22770855 48.90265261 -28.39712209 47.73976953 -27.5703125 46.57421875 C-27.14266602 45.98946777 -26.71501953 45.4047168 -26.27441406 44.80224609 C-16.96561374 31.63796181 -10.91380109 16.25994511 -6 1 C-5.67 1 -5.34 1 -5 1 C-4.90733825 10.8400054 -4.83625449 20.67990709 -4.79275131 30.52025986 C-4.77187235 35.08950964 -4.74354929 39.65846102 -4.69824219 44.22753906 C-4.65479512 48.63660873 -4.63086522 53.0453913 -4.62049103 57.45465851 C-4.61309757 59.13721487 -4.59865983 60.81975543 -4.57707977 62.50218964 C-4.54805997 64.85825101 -4.54404325 67.21312473 -4.54589844 69.56933594 C-4.52432678 70.61374847 -4.52432678 70.61374847 -4.50231934 71.67926025 C-4.53145269 75.09650704 -4.70610693 76.66681264 -7.00494385 79.27301025 C-7.66331238 79.84291687 -8.32168091 80.41282349 -9 81 C-9.50299316 85.10777749 -9.32749345 86.50875983 -7 90 C-3.83087902 90.89562115 -1.82297146 91.28915213 1.3125 90.1875 C3.15097822 89.09312675 3.15097822 89.09312675 4 87 C4.41702122 84.0842309 4.41702122 84.0842309 4 81 C3.0143808 80.14604645 3.0143808 80.14604645 2.0088501 79.27484131 C-0.74451147 76.156908 -0.53480177 73.43718988 -0.45410156 69.47753906 C-0.45468567 68.72593002 -0.45526978 67.97432098 -0.45587158 67.19993591 C-0.45308998 64.72135865 -0.42199617 62.24399155 -0.390625 59.765625 C-0.38316284 58.04498959 -0.37746979 56.32434568 -0.37347412 54.60369873 C-0.35821575 50.07924861 -0.31893242 45.55531372 -0.2746582 41.03106689 C-0.23370975 36.41270924 -0.21546403 31.79426819 -0.1953125 27.17578125 C-0.15243818 18.11696137 -0.08418454 9.05852356 0 0 Z " fill="#000000" transform="translate(115,31)"/>
</svg>
